<svg data-v-6805eed4="" version="1.0" xmlns="http://www.w3.org/2000/svg" xmlns:xlink="http://www.w3.org/1999/xlink" width="100%" height="100%" viewBox="0 0 340.000000 150.000000" preserveAspectRatio="meet" color-interpolation-filters="sRGB"> 
<rect data-v-6805eed4="" x="0" y="0" width="100%" height="100%" fill="url(#watermark)" fill-opacity="1" class="watermarklayer"></rect> <g data-v-6805eed4="" fill="#383c93" class="icon-text-wrapper icon-svg-group iconsvg" transform="translate(58.650001525878906,99.00234031677246)">
    <g class="iconsvg-imagesvg" transform="translate(0,0)"><g><rect fill="#383c93" fill-opacity="0" stroke-width="2" x="0" y="0" width="60" height="51.99532042116209" class="image-rect"></rect> <svg filter="url(#colors4091524088)" x="0" y="0" width="60" height="51.99532042116209" filtersec="colorsf7969700136" class="image-svg-svg primary" style="overflow: visible;"><svg xmlns="http://www.w3.org/2000/svg" viewBox="1.5 2 88.7 77.4"><path d="M45.8 4L67 40.7l21.2 36.7H3.5l21.2-36.7L45.8 4zM41 12.3l38.2 65.1M36.3 20.5l33.4 56.8m-9.6 0L31.5 28.8m14.3 24.3L31.5 77.3m-9.6 0L41 45M12.5 77.3L36.3 37M41 77.3l9.6-16.2m0 16.2l4.8-8.1" fill="none" stroke="#333" stroke-width="4" stroke-miterlimit="10"></path></svg></svg> <defs><filter id="colors4091524088"><feColorMatrix type="matrix" values="0 0 0 0 0.21875  0 0 0 0 0.234375  0 0 0 0 0.57421875  0 0 0 1 0" class="icon-fecolormatrix"></feColorMatrix></filter> <filter id="colorsf7969700136"><feColorMatrix type="matrix" values="0 0 0 0 0.99609375  0 0 0 0 0.99609375  0 0 0 0 0.99609375  0 0 0 1 0" class="icon-fecolormatrix"></feColorMatrix></filter> <filter id="colorsb9221853356"><feColorMatrix type="matrix" values="0 0 0 0 0  0 0 0 0 0  0 0 0 0 0  0 0 0 1 0" class="icon-fecolormatrix"></feColorMatrix></filter></defs></g></g> <g transform="translate(67,6.257659912109375)"><g data-gra="path-name" fill-rule="" class="tp-name iconsvg-namesvg"><g transform="scale(1)"><g><path d="M3-39C3.9-37.98 4.32-36.84 4.32-34.56L4.32 0 9.36 0 7.08-31.14 26.58 0 36.84 0C35.94-1.02 35.52-2.16 35.52-4.44L35.52-39 30.48-39 32.58-7.86 13.08-39ZM41.28-13.86C41.28-5.1 47.46 0.48 57.36 0.48 62.82 0.48 65.88-1.32 68.1-5.1L65.7-7.08C63.3-2.76 60.78-0.42 57.6-0.42 51.3-0.42 50.46-9.9 50.46-14.46L69.06-14.46C69.6-22.26 65.28-27.66 56.34-27.66 47.1-27.66 41.28-21.72 41.28-13.86ZM50.52-16.14C50.82-21.9 52.26-26.82 55.68-26.82 59.4-26.82 60.36-21 60.36-16.14ZM69.24-27.18C70.74-26.04 72.12-23.58 73.2-21.96L79.86-11.34 70.14 0 77.64 0 81.48-8.82 85.68-2.28C86.52-1.02 87 0 88.86 0L98.34 0C96.84-1.2 95.34-3.72 94.38-5.22L88.08-15.24 97.92-27.18 90.78-27.18 86.34-17.88 81.9-24.9C81.06-26.22 80.52-27.18 78.72-27.18ZM100.08-27.18C101.58-26.04 101.52-24.9 101.52-23.1L101.52-9.9C101.52-2.22 107.34 0.48 112.68 0.48 115.92 0.48 118.32-0.9 119.88-3.3L119.88-3.12C120.06-1.2 120.84 0 123.24 0L129.78 0C128.34-1.2 128.4-2.28 128.4-4.08L128.4-22.8C128.4-25.56 127.74-27.18 124.86-27.18L118.32-27.18C119.82-26.04 119.76-24.9 119.76-23.1L119.76-11.22C119.4-5.34 117.54-1.5 114.42-1.5 111.84-1.5 110.16-2.88 110.16-10.08L110.16-22.8C110.16-25.56 109.5-27.18 106.62-27.18ZM133.8-20.04C133.8-11.04 149.88-11.22 149.88-4.5 149.88-2.16 148.56-0.42 145.8-0.42 142.08-0.42 140.22-5.22 139.2-9.48 128.7-7.62 133.02 0.48 145.44 0.48 152.1 0.48 158.7-1.86 158.7-7.2 158.7-16.74 142.74-15.48 142.56-22.86 142.5-25.08 143.64-26.82 146.04-26.82 149.22-26.82 150.3-22.74 151.8-18.54 162.48-19.32 158.94-27.66 146.04-27.66 140.4-27.66 133.8-24.96 133.8-20.04Z" transform="translate(-3, 39)"></path></g> <!----> <!----> <!----> <!----> <!----> <!----> <!----></g></g> <!----></g></g><defs v-gra="od"></defs></svg>